<?xml version="1.0" encoding="UTF-8"?>
<svg version="1.1" xmlns="http://www.w3.org/2000/svg" width="4096" height="4096">
<path d="M0 0 C1351.68 0 2703.36 0 4096 0 C4096 1351.68 4096 2703.36 4096 4096 C2744.32 4096 1392.64 4096 0 4096 C0 2744.32 0 1392.64 0 0 Z " fill="#000000" transform="translate(0,0)"/>
<path d="M0 0 C0.33 0 0.66 0 1 0 C1 1351.68 1 2703.36 1 4096 C-1181.06 4096 -2363.12 4096 -3581 4096 C-3581 3589.12 -3581 3082.24 -3581 2560 C-3074.12 2560 -2567.24 2560 -2045 2560 C-2045 2730.94 -2045 2901.88 -2045 3078 C-2045.66 3078 -2046.32 3078 -2047 3078 C-2046.32961819 3130.46893487 -2041.53802994 3182.66248949 -2033.625 3234.5 C-2033.44208405 3235.70904999 -2033.25916809 3236.91809998 -2033.07070923 3238.16378784 C-2030.53141778 3254.83955166 -2027.3869324 3271.3040441 -2023.71430969 3287.76673889 C-2022.71561696 3292.28723524 -2021.76109656 3296.81678934 -2020.80332947 3301.34609985 C-2017.80854514 3315.4677928 -2013.9534132 3329.30639931 -2009.953125 3343.16796875 C-2008.53235446 3348.09310777 -2007.20282004 3353.01770278 -2006 3358 C-2004.45796281 3363.93401747 -2002.78953525 3369.78876812 -2000.8046875 3375.58984375 C-1999.88051118 3378.35788642 -1999.03342467 3381.14455037 -1998.1875 3383.9375 C-1996.28311973 3390.17800767 -1994.22716324 3396.36094384 -1992.14355469 3402.54321289 C-1990.82574636 3406.46775326 -1989.56661654 3410.39101492 -1988.4375 3414.375 C-1987.09165235 3418.97592102 -1985.25128339 3423.30728144 -1983.3671875 3427.7109375 C-1981.92037914 3431.19154505 -1980.60791416 3434.71141722 -1979.3125 3438.25 C-1975.60400026 3448.31272781 -1971.40078102 3458.17251925 -1967.23754883 3468.0534668 C-1965.96419855 3471.08524121 -1964.70438781 3474.1224293 -1963.4453125 3477.16015625 C-1961.34625736 3482.20198431 -1959.17166462 3487.20428313 -1956.9375 3492.1875 C-1956.27994792 3493.66015625 -1955.62239583 3495.1328125 -1954.96484375 3496.60546875 C-1954.63967773 3497.3315332 -1954.31451172 3498.05759766 -1953.97949219 3498.80566406 C-1953.3307013 3500.25913677 -1952.68546791 3501.7142031 -1952.04394531 3503.17089844 C-1945.15994862 3518.78987583 -1937.60445972 3534.08677436 -1929.53564453 3549.12451172 C-1928.04040869 3551.92433489 -1926.55795872 3554.73053396 -1925.07902527 3557.53898621 C-1923.66070306 3560.23106765 -1922.23802277 3562.92083371 -1920.81478882 3565.61032104 C-1920.1145917 3566.93515877 -1919.41583905 3568.26076111 -1918.71865845 3569.58718872 C-1915.19636819 3576.28335942 -1911.61469596 3582.82179201 -1907.30957031 3589.05859375 C-1905.3311369 3591.99157333 -1903.677672 3595.07633986 -1902 3598.1875 C-1893.27250895 3614.01122911 -1883.08692089 3629.01977423 -1873 3644 C-1871.64514632 3646.04121082 -1870.29095053 3648.08285853 -1868.9375 3650.125 C-1861.45642159 3661.32421918 -1853.67556024 3672.21291244 -1845.54833984 3682.94726562 C-1844.01954996 3684.97408135 -1842.50203303 3687.00880971 -1840.98828125 3689.046875 C-1835.03616449 3697.05231663 -1828.93699788 3704.91290404 -1822.671875 3712.67578125 C-1820.55645521 3715.29798971 -1818.4847093 3717.94900499 -1816.4375 3720.625 C-1810.38496583 3728.44469743 -1803.90903044 3735.94324817 -1797.25 3743.25 C-1793.84883641 3746.98520644 -1790.71538712 3750.84014814 -1787.703125 3754.89453125 C-1785.63252773 3757.45428338 -1783.34370446 3759.68592102 -1781 3762 C-1778.39562778 3764.68855611 -1775.8214129 3767.40495052 -1773.25 3770.125 C-1772.56550781 3770.84042969 -1771.88101563 3771.55585938 -1771.17578125 3772.29296875 C-1770.52480469 3772.98261719 -1769.87382812 3773.67226562 -1769.203125 3774.3828125 C-1768.31608887 3775.31697998 -1768.31608887 3775.31697998 -1767.41113281 3776.27001953 C-1766 3778 -1766 3778 -1765 3781 C-1764.13761719 3781.41765625 -1764.13761719 3781.41765625 -1763.2578125 3781.84375 C-1760.13386606 3783.44355648 -1758.15179012 3785.89893977 -1755.875 3788.5 C-1750.77319748 3794.2013549 -1745.45217722 3799.63155929 -1740 3805 C-1739.17886719 3805.83015625 -1738.35773438 3806.6603125 -1737.51171875 3807.515625 C-1735.13420795 3809.8672531 -1732.69289352 3812.09852543 -1730.1875 3814.3125 C-1726.98956612 3817.16932093 -1723.88324736 3820.06928523 -1720.875 3823.125 C-1717.7890811 3826.25394964 -1714.58626286 3829.16451684 -1711.25390625 3832.02734375 C-1709.04045963 3833.96458906 -1706.87813509 3835.95084932 -1704.72216797 3837.95166016 C-1699.59850519 3842.70364138 -1694.36353526 3847.23244563 -1688.91796875 3851.6171875 C-1685.54025455 3854.37542801 -1682.2380464 3857.21285519 -1678.9375 3860.0625 C-1669.78183245 3867.94630742 -1660.28616312 3875.35650329 -1650.6953125 3882.70019531 C-1648.41508515 3884.44845718 -1646.13989056 3886.20321168 -1643.86450195 3887.95776367 C-1641.24586803 3889.97558713 -1638.62306029 3891.98793367 -1636 3894 C-1635.29488281 3894.54269531 -1634.58976562 3895.08539062 -1633.86328125 3895.64453125 C-1628.71715489 3899.56076578 -1623.3905076 3903.20647984 -1618.05078125 3906.8515625 C-1616.13025849 3908.20404332 -1614.24516537 3909.60980589 -1612.41796875 3911.0859375 C-1610.03593147 3912.97155667 -1607.61481993 3914.45998335 -1605 3916 C-1603.0744058 3917.32040745 -1601.15856929 3918.65510143 -1599.25 3920 C-1579.80128493 3933.5647185 -1559.50612941 3946.02332175 -1539.125 3958.125 C-1537.81656128 3958.90496338 -1537.81656128 3958.90496338 -1536.48168945 3959.70068359 C-1531.50384996 3962.63401051 -1526.46656475 3965.33409225 -1521.26489258 3967.8503418 C-1518.9529405 3969.02388738 -1516.76419385 3970.31965998 -1514.5625 3971.6875 C-1502.80451329 3978.85252315 -1490.38817277 3984.91532619 -1477.92504883 3990.7409668 C-1472.82552255 3993.12525002 -1467.77448344 3995.58662433 -1462.75 3998.125 C-1450.06288272 4004.50387475 -1437.37521113 4010.20179679 -1424 4015 C-1424 4015.66 -1424 4016.32 -1424 4017 C-1423.15824219 4017.10828125 -1422.31648438 4017.2165625 -1421.44921875 4017.328125 C-1417.69442183 4018.05952372 -1414.32771208 4019.29101855 -1410.8125 4020.75 C-1410.15685059 4021.01659424 -1409.50120117 4021.28318848 -1408.82568359 4021.55786133 C-1404.88086085 4023.17611443 -1400.99319914 4024.89252466 -1397.125 4026.6875 C-1392.50067931 4028.82599293 -1387.85855587 4030.48470782 -1383 4032 C-1377.01903724 4033.90757726 -1371.14199975 4035.88633621 -1365.375 4038.375 C-1353.75768239 4043.3063093 -1341.65351165 4046.99073452 -1329.45263672 4050.17578125 C-1325.49903554 4051.22585474 -1321.6924367 4052.45956013 -1317.86328125 4053.90234375 C-1311.23264768 4056.35792147 -1304.46126493 4058.15098298 -1297.625 4059.9375 C-1296.28961023 4060.28938619 -1294.95424268 4060.64135669 -1293.61889648 4060.9934082 C-1275.18846008 4065.83329766 -1256.63722473 4070.03921094 -1238 4074 C-1236.9574707 4074.22220215 -1235.91494141 4074.4444043 -1234.84082031 4074.67333984 C-1231.66550131 4075.34851802 -1228.48922639 4076.01897729 -1225.3125 4076.6875 C-1224.35754639 4076.88988281 -1223.40259277 4077.09226562 -1222.41870117 4077.30078125 C-1216.40939912 4078.55587871 -1210.39352953 4079.61676471 -1204.32495117 4080.54614258 C-1202 4081 -1202 4081 -1201 4082 C-1199.68312036 4082.2763201 -1198.35440057 4082.49663677 -1197.02319336 4082.69262695 C-1196.17135971 4082.81978592 -1195.31952606 4082.94694489 -1194.44187927 4083.07795715 C-1193.03012169 4083.28106758 -1193.03012169 4083.28106758 -1191.58984375 4083.48828125 C-1190.10285728 4083.70498726 -1190.10285728 4083.70498726 -1188.58583069 4083.92607117 C-1186.45313397 4084.23510581 -1184.32009866 4084.54181088 -1182.18676758 4084.84643555 C-1179.08466676 4085.29139087 -1175.9847493 4085.74955077 -1172.88476562 4086.20898438 C-1139.8302657 4091.01662437 -1107.08948131 4093.63552538 -1073.6890533 4093.53730202 C-1068.98561176 4093.526853 -1064.28219407 4093.53665242 -1059.57875061 4093.54284668 C-1051.69558973 4093.55003308 -1043.81258091 4093.54077676 -1035.92944336 4093.52148438 C-1026.93723134 4093.4997258 -1017.9453826 4093.50679686 -1008.9531793 4093.52879 C-1001.09956825 4093.5471972 -993.24606373 4093.54938166 -985.39243799 4093.53903532 C-980.7600133 4093.53293751 -976.12775666 4093.53156837 -971.49534416 4093.54518127 C-939.48863682 4093.6265322 -908.02426157 4091.01813437 -876.375 4086.1875 C-875.54932526 4086.06405212 -874.72365051 4085.94060425 -873.87295532 4085.81341553 C-843.30516669 4081.23355883 -813.10583515 4074.95865358 -783 4068 C-781.75041504 4067.71205566 -780.50083008 4067.42411133 -779.21337891 4067.12744141 C-775.82774457 4066.34321936 -772.44448334 4065.54980739 -769.0625 4064.75 C-767.64469238 4064.41730103 -767.64469238 4064.41730103 -766.19824219 4064.07788086 C-760.29801033 4062.65778743 -754.51208351 4060.9790695 -748.72143555 4059.16503906 C-745.22819344 4058.07143863 -741.72914496 4056.99970557 -738.22721863 4055.93438721 C-719.94363579 4050.36919072 -701.70574194 4044.69645137 -683.625 4038.5 C-682.91237 4038.25701172 -682.19973999 4038.01402344 -681.46551514 4037.76367188 C-673.74630357 4035.12491709 -666.13256871 4032.33254547 -658.63110352 4029.11401367 C-655.88025573 4027.94930008 -653.10543049 4026.8718961 -650.3125 4025.8125 C-628.30611322 4017.55893166 -628.30611322 4017.55893166 -607.0625 4007.5703125 C-603.11189986 4005.54462212 -599.06882772 4003.77332861 -595 4002 C-592.86335741 4001.06640225 -590.72698224 4000.13223881 -588.59179688 3999.1953125 C-587.1842738 3998.57768678 -585.775468 3997.96297387 -584.36523438 3997.3515625 C-571.21465994 3991.55918773 -558.50581455 3984.76285286 -545.81591797 3978.03564453 C-543.60691888 3976.86542148 -541.39533829 3975.70018039 -539.18359375 3974.53515625 C-532.39738639 3970.94939207 -525.68400733 3967.31401506 -519.13769531 3963.30078125 C-515.83342194 3961.29014071 -512.44712805 3959.43338056 -509.0625 3957.5625 C-503.55633553 3954.48972574 -498.17336075 3951.29818944 -492.8828125 3947.86328125 C-490.07398019 3946.04781647 -487.24276131 3944.27447976 -484.40209961 3942.50952148 C-475.19305281 3936.78755684 -466.07426753 3930.93309201 -457 3925 C-456.02716064 3924.36578125 -456.02716064 3924.36578125 -455.03466797 3923.71875 C-446.04246854 3917.84479478 -437.32304679 3911.66858912 -428.703125 3905.26220703 C-426.2303586 3903.42960923 -423.74081341 3901.62046258 -421.25 3899.8125 C-420.37730469 3899.17828125 -419.50460938 3898.5440625 -418.60546875 3897.890625 C-416.83811515 3896.60816752 -415.06985561 3895.32695775 -413.30078125 3894.046875 C-410.52879971 3892.0380781 -407.76290417 3890.0212623 -405 3888 C-404.04222656 3887.30132813 -403.08445312 3886.60265625 -402.09765625 3885.8828125 C-395.55985025 3881.05462988 -389.32012841 3875.97114333 -383.15234375 3870.6875 C-380.30304309 3868.24796498 -377.41090401 3865.86590166 -374.5 3863.5 C-366.23207522 3856.76496055 -358.09533698 3849.87473903 -350.1015625 3842.81640625 C-346.40253438 3839.61929087 -342.61170045 3836.5307005 -338.83203125 3833.4296875 C-336.07773822 3831.06669403 -333.53119336 3828.59869185 -331 3826 C-327.66027281 3822.59272777 -324.33549331 3819.24647156 -320.6796875 3816.17578125 C-314.63751399 3810.91735561 -309.04253397 3805.19140479 -303.39086914 3799.52124023 C-301.4420313 3797.56704376 -299.48790728 3795.61824853 -297.53320312 3793.66992188 C-291.96324538 3788.10263007 -286.4345522 3782.55648473 -281.33227539 3776.55053711 C-279.49898059 3774.41690045 -277.51813684 3772.45789395 -275.5 3770.5 C-272.10469453 3767.14484172 -268.90472264 3763.69919519 -265.796875 3760.078125 C-263.81728882 3757.78869055 -261.78661041 3755.55132705 -259.75 3753.3125 C-251.98956284 3744.70738941 -244.60622187 3735.78527843 -237.30078125 3726.79296875 C-235.25316149 3724.30731828 -233.16773689 3721.85915015 -231.06665039 3719.41870117 C-224.88366905 3712.21781 -219.17885412 3704.71665268 -213.54248047 3697.08349609 C-210.92093713 3693.5424624 -208.27147911 3690.02241181 -205.625 3686.5 C-204.21908631 3684.62584536 -202.81353981 3682.75141816 -201.40869141 3680.87646484 C-200.43407113 3679.57820983 -199.45702106 3678.28177666 -198.47802734 3676.98681641 C-195.35192267 3672.84410844 -192.30604569 3668.65860734 -189.375 3664.375 C-188.92753418 3663.72168701 -188.48006836 3663.06837402 -188.01904297 3662.39526367 C-174.92605147 3643.20227337 -161.9576017 3623.9265312 -150 3604 C-149.54979492 3603.24976562 -149.09958984 3602.49953125 -148.63574219 3601.7265625 C-143.63237929 3593.35703395 -138.79007878 3584.90337115 -134.04418945 3576.38549805 C-132.26054941 3573.19458237 -130.44359084 3570.05594505 -128.4375 3567 C-124.80944426 3561.33426912 -122.0111956 3555.16438868 -119.04833984 3549.13330078 C-117.3757202 3545.72963277 -115.69070498 3542.33221604 -114 3538.9375 C-113.67241699 3538.2784668 -113.34483398 3537.61943359 -113.00732422 3536.94042969 C-110.69981749 3532.32541622 -108.27596648 3527.78322031 -105.8125 3523.25 C-102.42520538 3516.99458945 -99.63189655 3510.60366772 -97 3504 C-94.87736594 3498.97671462 -92.55199694 3494.10197872 -90.0625 3489.25 C-87.40795078 3484.00092905 -85.26752392 3478.66951944 -83.21875 3473.16015625 C-82.06504552 3470.1686597 -80.79278725 3467.27977725 -79.4375 3464.375 C-77.37191381 3459.92852007 -75.65948178 3455.43457731 -74.03125 3450.8125 C-72.94540643 3447.85110845 -71.73876997 3444.96303457 -70.5 3442.0625 C-68.43096466 3437.17147763 -66.68270519 3432.24454644 -65.08984375 3427.1796875 C-64.20699414 3424.6039184 -63.23963583 3422.1338634 -62.19921875 3419.62109375 C-59.36448521 3412.60999705 -57.15454823 3405.39259093 -54.875 3398.1875 C-54.21058024 3396.09445694 -53.54507184 3394.00177522 -52.87747192 3391.90974426 C-52.27647199 3390.0254592 -51.67890329 3388.14008073 -51.08154297 3386.25463867 C-50.42085472 3384.26645922 -49.71585628 3382.29146632 -48.93603516 3380.34692383 C-48.0347895 3378.08722783 -47.3761111 3375.88805264 -46.78125 3373.53125 C-46.57113281 3372.71269531 -46.36101563 3371.89414063 -46.14453125 3371.05078125 C-45.93183594 3370.20902344 -45.71914062 3369.36726563 -45.5 3368.5 C-44.24161717 3363.5198546 -42.93711737 3358.76340337 -41 3354 C-40.38515585 3351.67477122 -39.80576269 3349.34005343 -39.25 3347 C-37.66150687 3340.42108757 -35.84247613 3333.93122918 -33.9375 3327.4375 C-31.80779457 3320.12812437 -30.03490597 3312.8908532 -28.64453125 3305.40234375 C-28.01806378 3302.09535487 -27.28131164 3298.83599545 -26.5 3295.5625 C-25.17359127 3289.93741587 -24.09579891 3284.28850903 -23.05688477 3278.60546875 C-22.2093236 3274.00746344 -21.1893098 3269.51937724 -20 3265 C-18.10608689 3257.25001246 -17.03317349 3249.46869873 -16 3241.5625 C-15.02393235 3234.11617139 -14.01750186 3226.73129803 -12.47314453 3219.38012695 C-11.61264461 3215.05143049 -11.02751091 3210.68495082 -10.4375 3206.3125 C-10.30674072 3205.35206787 -10.17598145 3204.39163574 -10.04125977 3203.40209961 C-9.17493527 3196.83682123 -8.60764025 3190.32924046 -8.26318359 3183.71557617 C-8.01540999 3180.21755533 -7.58377369 3176.81538325 -7.0703125 3173.34765625 C-5.84757512 3164.6215281 -5.22229624 3155.8651845 -4.62231445 3147.07763672 C-4.43914163 3144.39900634 -4.24848935 3141.72099025 -4.05664062 3139.04296875 C-3.33875508 3128.85605288 -2.74910323 3118.67312919 -2.370224 3108.46737671 C-2.10763779 3102.10763779 -2.10763779 3102.10763779 -1 3101 C-0.89927929 3098.70550044 -0.87129455 3096.40781898 -0.86938947 3094.11111063 C-0.86741696 3093.37721172 -0.86544445 3092.6433128 -0.86341216 3091.88717453 C-0.85795118 3089.39164181 -0.85970222 3086.89616367 -0.8613348 3084.40062618 C-0.85889027 3082.60023355 -0.85600728 3080.79984147 -0.85272202 3078.99945018 C-0.84490081 3074.00525396 -0.84337784 3069.01107187 -0.8427946 3064.01687028 C-0.84107436 3058.60133727 -0.83359404 3053.18581189 -0.82681805 3047.77028328 C-0.81572875 3038.26343462 -0.80837672 3028.75658864 -0.80341911 3019.24973488 C-0.79603057 3005.11322523 -0.78295156 2990.97672494 -0.76867336 2976.84022078 C-0.74482198 2953.06434022 -0.7256278 2929.28845801 -0.70907402 2905.51257133 C-0.69266118 2881.95941376 -0.67418842 2858.40625927 -0.65294075 2834.85310555 C-0.65195316 2833.75679026 -0.65195316 2833.75679026 -0.65094561 2832.63832719 C-0.64493129 2825.96310841 -0.63889148 2819.28788965 -0.63282111 2812.61267092 C-0.61772967 2796.0171947 -0.60295783 2779.4217182 -0.58840275 2762.82624149 C-0.58773961 2762.0704349 -0.58707647 2761.3146283 -0.58639324 2760.53591848 C-0.55414606 2723.75059152 -0.52558059 2686.96526183 -0.49731445 2650.17993164 C-0.48750073 2637.4110921 -0.47767075 2624.64225257 -0.46777344 2611.87341309 C-0.46685274 2610.68556157 -0.46685274 2610.68556157 -0.46591344 2609.47371306 C-0.43737209 2572.67937053 -0.40620945 2535.88503037 -0.37439038 2499.09069055 C-0.37230947 2496.68393613 -0.37023029 2494.27718172 -0.36815169 2491.8704273 C-0.34648939 2466.78924051 -0.32470097 2441.70805383 -0.30285783 2416.62686719 C-0.3022338 2415.91031871 -0.30160977 2415.19377023 -0.30096683 2414.45550815 C-0.29928717 2412.52696682 -0.29760723 2410.59842549 -0.29592726 2408.66988415 C-0.19072431 2287.77992756 -0.09618643 2166.88996479 0 2046 C-169.62 2046 -339.24 2046 -514 2046 C-514 2588.85 -514 3131.7 -514 3691 C-850.6 3691 -1187.2 3691 -1534 3691 C-1534 3148.15 -1534 2605.3 -1534 2046 C-1701.97 2046 -1869.94 2046 -2043 2046 C-2043.33 2045.34 -2043.66 2044.68 -2044 2044 C-2350.24 2043.67 -2656.48 2043.34 -2972 2043 C-2967.49515381 2040.74757691 -2963.78754157 2040.55302643 -2958.875 2040.25 C-2940.91423074 2038.91328768 -2923.12033104 2036.01245351 -2905.31933594 2033.34631348 C-2903.24981604 2033.03730148 -2901.17963825 2032.73270291 -2899.109375 2032.42871094 C-2883.75371921 2030.16870515 -2868.63072754 2027.14741968 -2853.48339844 2023.76904297 C-2850.1101998 2023.02432922 -2846.73236516 2022.30695405 -2843.3515625 2021.59765625 C-2826.74264514 2018.07325013 -2810.48939878 2013.60730506 -2794.18725586 2008.90087891 C-2791.69125532 2008.19538354 -2789.19922805 2007.52757579 -2786.6796875 2006.9140625 C-2782.17653078 2005.79544395 -2777.75151524 2004.47269563 -2773.3125 2003.125 C-2772.42965332 2002.85816406 -2771.54680664 2002.59132813 -2770.63720703 2002.31640625 C-2768.88138362 2001.78513573 -2767.1258406 2001.25293746 -2765.37060547 2000.71972656 C-2763.39513852 2000.11996585 -2761.4184252 1999.5243123 -2759.44140625 1998.9296875 C-2750.23238673 1996.13765356 -2741.11227606 1993.09036387 -2732 1990 C-2731.23864746 1989.74379883 -2730.47729492 1989.48759766 -2729.69287109 1989.22363281 C-2709.85698515 1982.52907381 -2690.27921921 1974.96523616 -2671.171875 1966.40625 C-2668.50816277 1965.22529384 -2665.83949072 1964.11914739 -2663.125 1963.0625 C-2645.32820709 1956.01976258 -2628.18215445 1947.40203151 -2611 1939 C-2609.79730469 1938.4121875 -2609.79730469 1938.4121875 -2608.5703125 1937.8125 C-2604.0252322 1935.5834951 -2599.50648673 1933.30595081 -2595 1931 C-2593.97068359 1930.47374023 -2592.94136719 1929.94748047 -2591.88085938 1929.40527344 C-2588.89777599 1927.8770066 -2585.91664864 1926.34511361 -2582.93756104 1924.80908203 C-2581.18044162 1923.90357119 -2579.42202833 1923.00057245 -2577.66357422 1922.09765625 C-2571.85153832 1919.08935258 -2566.15283667 1915.98176365 -2560.56933594 1912.56787109 C-2557.65938142 1910.79214628 -2554.72445035 1909.06265005 -2551.78515625 1907.3359375 C-2533.77021157 1896.72903237 -2516.01556115 1885.81438981 -2498.67724609 1874.12744141 C-2496.08487099 1872.38485214 -2493.47870729 1870.66309424 -2490.875 1868.9375 C-2480.12199606 1861.85255398 -2480.12199606 1861.85255398 -2469.75 1854.23828125 C-2468 1853 -2468 1853 -2466 1853 C-2466 1852.34 -2466 1851.68 -2466 1851 C-2464.05282291 1849.47867146 -2462.10191284 1848.07633277 -2460.0625 1846.6875 C-2454.33164576 1842.69399007 -2448.72624806 1838.56853888 -2443.1875 1834.3125 C-2442.1056543 1833.48298828 -2442.1056543 1833.48298828 -2441.00195312 1832.63671875 C-2436.48457868 1829.16437747 -2431.99791542 1825.65584945 -2427.56640625 1822.07421875 C-2426 1821 -2426 1821 -2424 1821 C-2424 1820.34 -2424 1819.68 -2424 1819 C-2422.1015625 1817.2734375 -2422.1015625 1817.2734375 -2419.625 1815.375 C-2418.81289062 1814.74335937 -2418.00078125 1814.11171875 -2417.1640625 1813.4609375 C-2415 1812 -2415 1812 -2413 1812 C-2413 1811.34 -2413 1810.68 -2413 1810 C-2409.53846154 1807 -2409.53846154 1807 -2407 1807 C-2407 1806.34 -2407 1805.68 -2407 1805 C-2405.5390625 1803.4921875 -2405.5390625 1803.4921875 -2403.625 1801.875 C-2402.68527344 1801.06675781 -2402.68527344 1801.06675781 -2401.7265625 1800.2421875 C-2400 1799 -2400 1799 -2398 1799 C-2398 1798.34 -2398 1797.68 -2398 1797 C-2393.52941176 1793 -2393.52941176 1793 -2391 1793 C-2391 1792.34 -2391 1791.68 -2391 1791 C-2389.35 1790.34 -2387.7 1789.68 -2386 1789 C-2386 1788.34 -2386 1787.68 -2386 1787 C-2384.77734375 1785.765625 -2384.77734375 1785.765625 -2382.9375 1784.25 C-2379.94376224 1781.72015674 -2377.04402758 1779.12060508 -2374.19921875 1776.42578125 C-2373.52963135 1775.79188477 -2372.86004395 1775.15798828 -2372.17016602 1774.50488281 C-2370.81181735 1773.21480021 -2369.45680222 1771.92119813 -2368.10522461 1770.62402344 C-2367.47495361 1770.02750977 -2366.84468262 1769.43099609 -2366.1953125 1768.81640625 C-2365.62828613 1768.27443604 -2365.06125977 1767.73246582 -2364.47705078 1767.17407227 C-2363 1766 -2363 1766 -2361 1766 C-2360.78214844 1765.44441406 -2360.56429687 1764.88882812 -2360.33984375 1764.31640625 C-2358.58132649 1761.27617087 -2356.1750494 1759.22188921 -2353.5625 1756.9375 C-2347.48198289 1751.49951891 -2341.72685364 1745.8082781 -2336 1740 C-2335.16339844 1739.17242188 -2334.32679687 1738.34484375 -2333.46484375 1737.4921875 C-2331.05890707 1735.05956056 -2328.77081075 1732.55866 -2326.5 1730 C-2323.42345266 1726.55912468 -2320.26368166 1723.26368166 -2317 1720 C-2313.96697273 1716.69596079 -2310.98064139 1713.35129109 -2308 1710 C-2307.38769531 1709.31550781 -2306.77539062 1708.63101562 -2306.14453125 1707.92578125 C-2302.13098851 1703.39791724 -2298.38052286 1698.70857992 -2294.69921875 1693.90625 C-2294.13847656 1693.2771875 -2293.57773438 1692.648125 -2293 1692 C-2292.34 1692 -2291.68 1692 -2291 1692 C-2290.67708984 1691.21496094 -2290.67708984 1691.21496094 -2290.34765625 1690.4140625 C-2288.45963604 1687.03204369 -2285.9754736 1684.2866829 -2283.4375 1681.375 C-2279.85426322 1677.44179069 -2279.85426322 1677.44179069 -2277 1673 C-2276.34 1673 -2275.68 1673 -2275 1673 C-2274.7525 1672.46375 -2274.505 1671.9275 -2274.25 1671.375 C-2272.32241474 1667.71258801 -2270.26012258 1664.21471276 -2267.265625 1661.328125 C-2264.06615007 1658.04038869 -2261.3859697 1654.40796677 -2258.625 1650.75 C-2258.07328125 1650.02425781 -2257.5215625 1649.29851562 -2256.953125 1648.55078125 C-2251.41692236 1641.26014819 -2245.92426512 1633.93682287 -2240.5 1626.5625 C-2240.0244165 1625.91724365 -2239.54883301 1625.2719873 -2239.05883789 1624.60717773 C-2235.91482036 1620.31763632 -2232.92679625 1615.96216726 -2230.12109375 1611.44140625 C-2229.75113281 1610.96574219 -2229.38117188 1610.49007813 -2229 1610 C-2228.34 1610 -2227.68 1610 -2227 1610 C-2226.89558594 1609.42894531 -2226.79117188 1608.85789062 -2226.68359375 1608.26953125 C-2225.88250867 1605.60992878 -2224.70606898 1603.92662104 -2223.0625 1601.6875 C-2202.49062109 1572.96998823 -2184.39247968 1542.25931721 -2167.765625 1511.125 C-2165.66735558 1507.2052181 -2163.48380362 1503.36898528 -2161.1875 1499.5625 C-2157.66974529 1493.6474606 -2154.83995664 1487.44894994 -2151.9609375 1481.20703125 C-2150.26253352 1477.53267923 -2148.46473633 1473.91855596 -2146.625 1470.3125 C-2143.05304638 1463.24249524 -2139.79327618 1456.04014473 -2136.55126953 1448.8137207 C-2134.73553171 1444.77466755 -2132.9049692 1440.76457385 -2130.8828125 1436.82421875 C-2128.96590922 1433.04303494 -2127.4865123 1429.17591416 -2126.0625 1425.1875 C-2124.3795617 1420.58418434 -2122.6486057 1416.06483679 -2120.5625 1411.625 C-2117.33686089 1404.73810492 -2114.67864395 1397.62871762 -2111.96875 1390.52734375 C-2111.26616858 1388.69439947 -2110.55696998 1386.8639872 -2109.84375 1385.03515625 C-2106.71886708 1376.99834799 -2103.80497681 1368.90364791 -2101 1360.75 C-2100.7827829 1360.12058502 -2100.5655658 1359.49117004 -2100.34176636 1358.84268188 C-2097.33501815 1350.11859511 -2094.49981959 1341.37387371 -2092.03515625 1332.48046875 C-2091.25612107 1329.86114668 -2090.40996875 1327.3765058 -2089.43359375 1324.83203125 C-2088.37347076 1322.06810342 -2087.53891482 1319.41912193 -2087 1316.5 C-2086.47434626 1313.6527089 -2085.70729761 1311.23880311 -2084.66015625 1308.515625 C-2082.50438636 1302.87805879 -2080.98789854 1297.07786196 -2079.4375 1291.25 C-2079.18629898 1290.30691986 -2079.18629898 1290.30691986 -2078.93002319 1289.3447876 C-2071.47281024 1261.21196333 -2064.96717086 1232.73825541 -2060.41381836 1203.9855957 C-2060 1202 -2060 1202 -2059 1201 C-2058.7236799 1199.68312036 -2058.50336323 1198.35440057 -2058.30737305 1197.02319336 C-2058.18008316 1196.16976349 -2058.05279327 1195.31633362 -2057.92164612 1194.43704224 C-2057.78637009 1193.49746674 -2057.65109406 1192.55789124 -2057.51171875 1191.58984375 C-2057.29678017 1190.12440628 -2057.29678017 1190.12440628 -2057.07749939 1188.62936401 C-2051.10474998 1147.60464257 -2047.32738097 1107.47578276 -2047 1066 C-2046.67 1066 -2046.34 1066 -2046 1066 C-2045.95877014 1066.63415833 -2045.91754028 1067.26831665 -2045.87506104 1067.92169189 C-2043.22982732 1108.45635385 -2039.75422969 1148.34799616 -2033.625 1188.5 C-2033.35062607 1190.31357498 -2033.35062607 1190.31357498 -2033.07070923 1192.16378784 C-2030.53141778 1208.83955166 -2027.3869324 1225.3040441 -2023.71430969 1241.76673889 C-2022.71561696 1246.28723524 -2021.76109656 1250.81678934 -2020.80332947 1255.34609985 C-2017.80854514 1269.4677928 -2013.9534132 1283.30639931 -2009.953125 1297.16796875 C-2008.53235446 1302.09310777 -2007.20282004 1307.01770278 -2006 1312 C-2004.45796281 1317.93401747 -2002.78953525 1323.78876812 -2000.8046875 1329.58984375 C-1999.88051118 1332.35788642 -1999.03342467 1335.14455037 -1998.1875 1337.9375 C-1996.28311973 1344.17800767 -1994.22716324 1350.36094384 -1992.14355469 1356.54321289 C-1990.82574636 1360.46775326 -1989.56661654 1364.39101492 -1988.4375 1368.375 C-1987.09165235 1372.97592102 -1985.25128339 1377.30728144 -1983.3671875 1381.7109375 C-1981.92037914 1385.19154505 -1980.60791416 1388.71141722 -1979.3125 1392.25 C-1975.60400026 1402.31272781 -1971.40078102 1412.17251925 -1967.23754883 1422.0534668 C-1965.96419855 1425.08524121 -1964.70438781 1428.1224293 -1963.4453125 1431.16015625 C-1961.34625736 1436.20198431 -1959.17166462 1441.20428313 -1956.9375 1446.1875 C-1956.27994792 1447.66015625 -1955.62239583 1449.1328125 -1954.96484375 1450.60546875 C-1954.47709473 1451.69456543 -1954.47709473 1451.69456543 -1953.97949219 1452.80566406 C-1953.3307013 1454.25913677 -1952.68546791 1455.7142031 -1952.04394531 1457.17089844 C-1945.15994862 1472.78987583 -1937.60445972 1488.08677436 -1929.53564453 1503.12451172 C-1928.04040869 1505.92433489 -1926.55795872 1508.73053396 -1925.07902527 1511.53898621 C-1923.66070306 1514.23106765 -1922.23802277 1516.92083371 -1920.81478882 1519.61032104 C-1920.1145917 1520.93515877 -1919.41583905 1522.26076111 -1918.71865845 1523.58718872 C-1915.19636819 1530.28335942 -1911.61469596 1536.82179201 -1907.30957031 1543.05859375 C-1905.3311369 1545.99157333 -1903.677672 1549.07633986 -1902 1552.1875 C-1893.27250895 1568.01122911 -1883.08692089 1583.01977423 -1873 1598 C-1871.64514632 1600.04121082 -1870.29095053 1602.08285853 -1868.9375 1604.125 C-1861.45642159 1615.32421918 -1853.67556024 1626.21291244 -1845.54833984 1636.94726562 C-1844.01954996 1638.97408135 -1842.50203303 1641.00880971 -1840.98828125 1643.046875 C-1835.03616449 1651.05231663 -1828.93699788 1658.91290404 -1822.671875 1666.67578125 C-1820.55645521 1669.29798971 -1818.4847093 1671.94900499 -1816.4375 1674.625 C-1810.38496583 1682.44469743 -1803.90903044 1689.94324817 -1797.25 1697.25 C-1793.84883641 1700.98520644 -1790.71538712 1704.84014814 -1787.703125 1708.89453125 C-1785.63252773 1711.45428338 -1783.34370446 1713.68592102 -1781 1716 C-1778.39562778 1718.68855611 -1775.8214129 1721.40495052 -1773.25 1724.125 C-1772.56550781 1724.84042969 -1771.88101563 1725.55585937 -1771.17578125 1726.29296875 C-1770.52480469 1726.98261719 -1769.87382812 1727.67226562 -1769.203125 1728.3828125 C-1768.61176758 1729.00559082 -1768.02041016 1729.62836914 -1767.41113281 1730.27001953 C-1766 1732 -1766 1732 -1765 1735 C-1764.42507813 1735.2784375 -1763.85015625 1735.556875 -1763.2578125 1735.84375 C-1760.13386606 1737.44355648 -1758.15179012 1739.89893977 -1755.875 1742.5 C-1750.77319748 1748.2013549 -1745.45217722 1753.63155929 -1740 1759 C-1739.17886719 1759.83015625 -1738.35773438 1760.6603125 -1737.51171875 1761.515625 C-1735.13420795 1763.8672531 -1732.69289352 1766.09852543 -1730.1875 1768.3125 C-1726.98956612 1771.16932093 -1723.88324736 1774.06928523 -1720.875 1777.125 C-1717.7890811 1780.25394964 -1714.58626286 1783.16451684 -1711.25390625 1786.02734375 C-1709.04045963 1787.96458906 -1706.87813509 1789.95084932 -1704.72216797 1791.95166016 C-1699.59850519 1796.70364138 -1694.36353526 1801.23244563 -1688.91796875 1805.6171875 C-1685.54025455 1808.37542801 -1682.2380464 1811.21285519 -1678.9375 1814.0625 C-1669.78183245 1821.94630742 -1660.28616312 1829.35650329 -1650.6953125 1836.70019531 C-1648.41508515 1838.44845718 -1646.13989056 1840.20321168 -1643.86450195 1841.95776367 C-1641.24586803 1843.97558713 -1638.62306029 1845.98793367 -1636 1848 C-1635.29488281 1848.54269531 -1634.58976562 1849.08539062 -1633.86328125 1849.64453125 C-1628.71715489 1853.56076578 -1623.3905076 1857.20647984 -1618.05078125 1860.8515625 C-1616.13025849 1862.20404332 -1614.24516537 1863.60980589 -1612.41796875 1865.0859375 C-1610.03593147 1866.97155667 -1607.61481993 1868.45998335 -1605 1870 C-1603.0744058 1871.32040745 -1601.15856929 1872.65510143 -1599.25 1874 C-1579.80128493 1887.5647185 -1559.50612941 1900.02332175 -1539.125 1912.125 C-1538.25270752 1912.64497559 -1537.38041504 1913.16495117 -1536.48168945 1913.70068359 C-1531.50384996 1916.63401051 -1526.46656475 1919.33409225 -1521.26489258 1921.8503418 C-1518.9529405 1923.02388738 -1516.76419385 1924.31965998 -1514.5625 1925.6875 C-1502.80451329 1932.85252315 -1490.38817277 1938.91532619 -1477.92504883 1944.7409668 C-1472.82552255 1947.12525002 -1467.77448344 1949.58662433 -1462.75 1952.125 C-1450.06288272 1958.50387475 -1437.37521113 1964.20179679 -1424 1969 C-1424 1969.66 -1424 1970.32 -1424 1971 C-1423.15824219 1971.10828125 -1422.31648438 1971.2165625 -1421.44921875 1971.328125 C-1417.69442183 1972.05952372 -1414.32771208 1973.29101855 -1410.8125 1974.75 C-1409.82902588 1975.14989136 -1409.82902588 1975.14989136 -1408.82568359 1975.55786133 C-1404.88086085 1977.17611443 -1400.99319914 1978.89252466 -1397.125 1980.6875 C-1392.50067931 1982.82599293 -1387.85855587 1984.48470782 -1383 1986 C-1377.01903724 1987.90757726 -1371.14199975 1989.88633621 -1365.375 1992.375 C-1353.75768239 1997.3063093 -1341.65351165 2000.99073452 -1329.45263672 2004.17578125 C-1325.49903554 2005.22585474 -1321.6924367 2006.45956013 -1317.86328125 2007.90234375 C-1311.23264768 2010.35792147 -1304.46126493 2012.15098298 -1297.625 2013.9375 C-1296.28961023 2014.28938619 -1294.95424268 2014.64135669 -1293.61889648 2014.9934082 C-1275.18846008 2019.83329766 -1256.63722473 2024.03921094 -1238 2028 C-1236.9574707 2028.22220215 -1235.91494141 2028.4444043 -1234.84082031 2028.67333984 C-1231.66550131 2029.34851802 -1228.48922639 2030.01897729 -1225.3125 2030.6875 C-1224.35754639 2030.88988281 -1223.40259277 2031.09226562 -1222.41870117 2031.30078125 C-1216.40939912 2032.55587871 -1210.39352953 2033.61676471 -1204.32495117 2034.54614258 C-1202 2035 -1202 2035 -1201 2036 C-1199.68312036 2036.2763201 -1198.35440057 2036.49663677 -1197.02319336 2036.69262695 C-1196.17135971 2036.81978592 -1195.31952606 2036.94694489 -1194.44187927 2037.07795715 C-1193.03012169 2037.28106758 -1193.03012169 2037.28106758 -1191.58984375 2037.48828125 C-1190.10285728 2037.70498726 -1190.10285728 2037.70498726 -1188.58583069 2037.92607117 C-1186.45313397 2038.23510581 -1184.32009866 2038.54181088 -1182.18676758 2038.84643555 C-1179.08466676 2039.29139087 -1175.9847493 2039.74955077 -1172.88476562 2040.20898438 C-1139.8302657 2045.01662437 -1107.08948131 2047.63552538 -1073.6890533 2047.53730202 C-1068.98561176 2047.526853 -1064.28219407 2047.53665242 -1059.57875061 2047.54284668 C-1051.69558973 2047.55003308 -1043.81258091 2047.54077676 -1035.92944336 2047.52148438 C-1026.93723134 2047.4997258 -1017.9453826 2047.50679686 -1008.9531793 2047.52879 C-1001.09956825 2047.5471972 -993.24606373 2047.54938166 -985.39243799 2047.53903532 C-980.7600133 2047.53293751 -976.12775666 2047.53156837 -971.49534416 2047.54518127 C-939.48863682 2047.6265322 -908.02426157 2045.01813437 -876.375 2040.1875 C-875.54932526 2040.06405212 -874.72365051 2039.94060425 -873.87295532 2039.81341553 C-843.30516669 2035.23355883 -813.10583515 2028.95865358 -783 2022 C-781.75041504 2021.71205566 -780.50083008 2021.42411133 -779.21337891 2021.12744141 C-775.82774457 2020.34321936 -772.44448334 2019.54980739 -769.0625 2018.75 C-767.64469238 2018.41730103 -767.64469238 2018.41730103 -766.19824219 2018.07788086 C-760.29801033 2016.65778743 -754.51208351 2014.9790695 -748.72143555 2013.16503906 C-745.22819344 2012.07143863 -741.72914496 2010.99970557 -738.22721863 2009.93438721 C-719.94363579 2004.36919072 -701.70574194 1998.69645137 -683.625 1992.5 C-682.91237 1992.25701172 -682.19973999 1992.01402344 -681.46551514 1991.76367188 C-673.74630357 1989.12491709 -666.13256871 1986.33254547 -658.63110352 1983.11401367 C-655.88025573 1981.94930008 -653.10543049 1980.8718961 -650.3125 1979.8125 C-628.30611322 1971.55893166 -628.30611322 1971.55893166 -607.0625 1961.5703125 C-603.11189986 1959.54462212 -599.06882772 1957.77332861 -595 1956 C-592.86335741 1955.06640225 -590.72698224 1954.13223881 -588.59179688 1953.1953125 C-587.1842738 1952.57768678 -585.775468 1951.96297387 -584.36523438 1951.3515625 C-571.21465994 1945.55918773 -558.50581455 1938.76285286 -545.81591797 1932.03564453 C-543.60691888 1930.86542148 -541.39533829 1929.70018039 -539.18359375 1928.53515625 C-532.39738639 1924.94939207 -525.68400733 1921.31401506 -519.13769531 1917.30078125 C-515.83342194 1915.29014071 -512.44712805 1913.43338056 -509.0625 1911.5625 C-503.55633553 1908.48972574 -498.17336075 1905.29818944 -492.8828125 1901.86328125 C-490.07398019 1900.04781647 -487.24276131 1898.27447976 -484.40209961 1896.50952148 C-475.19305281 1890.78755684 -466.07426753 1884.93309201 -457 1879 C-456.02716064 1878.36578125 -456.02716064 1878.36578125 -455.03466797 1877.71875 C-446.04246854 1871.84479478 -437.32304679 1865.66858912 -428.703125 1859.26220703 C-426.2303586 1857.42960923 -423.74081341 1855.62046258 -421.25 1853.8125 C-420.37730469 1853.17828125 -419.50460938 1852.5440625 -418.60546875 1851.890625 C-416.83811515 1850.60816752 -415.06985561 1849.32695775 -413.30078125 1848.046875 C-410.52879971 1846.0380781 -407.76290417 1844.0212623 -405 1842 C-404.04222656 1841.30132813 -403.08445312 1840.60265625 -402.09765625 1839.8828125 C-395.55985025 1835.05462988 -389.32012841 1829.97114333 -383.15234375 1824.6875 C-380.30304309 1822.24796498 -377.41090401 1819.86590166 -374.5 1817.5 C-366.23207522 1810.76496055 -358.09533698 1803.87473903 -350.1015625 1796.81640625 C-346.40253438 1793.61929087 -342.61170045 1790.5307005 -338.83203125 1787.4296875 C-336.07773822 1785.06669403 -333.53119336 1782.59869185 -331 1780 C-327.66027281 1776.59272777 -324.33549331 1773.24647156 -320.6796875 1770.17578125 C-314.63751399 1764.91735561 -309.04253397 1759.19140479 -303.39086914 1753.52124023 C-301.4420313 1751.56704376 -299.48790728 1749.61824853 -297.53320312 1747.66992188 C-291.96324538 1742.10263007 -286.4345522 1736.55648473 -281.33227539 1730.55053711 C-279.49898059 1728.41690045 -277.51813684 1726.45789395 -275.5 1724.5 C-272.10469453 1721.14484172 -268.90472264 1717.69919519 -265.796875 1714.078125 C-263.81728882 1711.78869055 -261.78661041 1709.55132705 -259.75 1707.3125 C-251.98956284 1698.70738941 -244.60622187 1689.78527843 -237.30078125 1680.79296875 C-235.25316149 1678.30731828 -233.16773689 1675.85915015 -231.06665039 1673.41870117 C-224.88366905 1666.21781 -219.17885412 1658.71665268 -213.54248047 1651.08349609 C-210.92093713 1647.5424624 -208.27147911 1644.02241181 -205.625 1640.5 C-204.21908631 1638.62584536 -202.81353981 1636.75141816 -201.40869141 1634.87646484 C-200.43407113 1633.57820983 -199.45702106 1632.28177666 -198.47802734 1630.98681641 C-195.35192267 1626.84410844 -192.30604569 1622.65860734 -189.375 1618.375 C-188.92753418 1617.72168701 -188.48006836 1617.06837402 -188.01904297 1616.39526367 C-174.92605147 1597.20227337 -161.9576017 1577.9265312 -150 1558 C-149.54979492 1557.24976563 -149.09958984 1556.49953125 -148.63574219 1555.7265625 C-143.63237929 1547.35703395 -138.79007878 1538.90337115 -134.04418945 1530.38549805 C-132.26054941 1527.19458237 -130.44359084 1524.05594505 -128.4375 1521 C-124.80944426 1515.33426912 -122.0111956 1509.16438868 -119.04833984 1503.13330078 C-117.3757202 1499.72963277 -115.69070498 1496.33221604 -114 1492.9375 C-113.67241699 1492.2784668 -113.34483398 1491.61943359 -113.00732422 1490.94042969 C-110.69981749 1486.32541622 -108.27596648 1481.78322031 -105.8125 1477.25 C-102.42520538 1470.99458945 -99.63189655 1464.60366772 -97 1458 C-94.87736594 1452.97671462 -92.55199694 1448.10197872 -90.0625 1443.25 C-87.40795078 1438.00092905 -85.26752392 1432.66951944 -83.21875 1427.16015625 C-82.06504552 1424.1686597 -80.79278725 1421.27977725 -79.4375 1418.375 C-77.37191381 1413.92852007 -75.65948178 1409.43457731 -74.03125 1404.8125 C-72.94540643 1401.85110845 -71.73876997 1398.96303457 -70.5 1396.0625 C-68.43096466 1391.17147763 -66.68270519 1386.24454644 -65.08984375 1381.1796875 C-64.20699414 1378.6039184 -63.23963583 1376.1338634 -62.19921875 1373.62109375 C-59.36448521 1366.60999705 -57.15454823 1359.39259093 -54.875 1352.1875 C-54.21058024 1350.09445694 -53.54507184 1348.00177522 -52.87747192 1345.90974426 C-52.27647199 1344.0254592 -51.67890329 1342.14008073 -51.08154297 1340.25463867 C-50.42085472 1338.26645922 -49.71585628 1336.29146632 -48.93603516 1334.34692383 C-48.0347895 1332.08722783 -47.3761111 1329.88805264 -46.78125 1327.53125 C-46.57113281 1326.71269531 -46.36101563 1325.89414063 -46.14453125 1325.05078125 C-45.93183594 1324.20902344 -45.71914062 1323.36726563 -45.5 1322.5 C-44.24161717 1317.5198546 -42.93711737 1312.76340337 -41 1308 C-40.38515585 1305.67477122 -39.80576269 1303.34005343 -39.25 1301 C-37.66150687 1294.42108757 -35.84247613 1287.93122918 -33.9375 1281.4375 C-31.80779457 1274.12812437 -30.03490597 1266.8908532 -28.64453125 1259.40234375 C-28.01806378 1256.09535487 -27.28131164 1252.83599545 -26.5 1249.5625 C-25.17359127 1243.93741587 -24.09579891 1238.28850903 -23.05688477 1232.60546875 C-22.2093236 1228.00746344 -21.1893098 1223.51937724 -20 1219 C-18.10608689 1211.25001246 -17.03317349 1203.46869873 -16 1195.5625 C-15.02393235 1188.11617139 -14.01750186 1180.73129803 -12.47314453 1173.38012695 C-11.61264461 1169.05143049 -11.02751091 1164.68495082 -10.4375 1160.3125 C-10.24136108 1158.87185181 -10.24136108 1158.87185181 -10.04125977 1157.40209961 C-9.17493527 1150.83682123 -8.60764025 1144.32924046 -8.26318359 1137.71557617 C-8.01540999 1134.21755533 -7.58377369 1130.81538325 -7.0703125 1127.34765625 C-5.84757512 1118.6215281 -5.22229624 1109.8651845 -4.62231445 1101.07763672 C-4.43914163 1098.39900634 -4.24848935 1095.72099025 -4.05664062 1093.04296875 C-3.33875508 1082.85605288 -2.74910323 1072.67312919 -2.370224 1062.46737671 C-2.10763779 1056.10763779 -2.10763779 1056.10763779 -1 1055 C-0.89927929 1052.70550044 -0.87129455 1050.40781898 -0.86938947 1048.11111063 C-0.86741696 1047.37721172 -0.86544445 1046.6433128 -0.86341216 1045.88717453 C-0.85795118 1043.39164181 -0.85970222 1040.89616367 -0.8613348 1038.40062618 C-0.85889027 1036.60023355 -0.85600728 1034.79984147 -0.85272202 1032.99945018 C-0.84490081 1028.00525396 -0.84337784 1023.01107187 -0.8427946 1018.01687028 C-0.84107436 1012.60133727 -0.83359404 1007.18581189 -0.82681805 1001.77028328 C-0.81572875 992.26343462 -0.80837672 982.75658864 -0.80341911 973.24973488 C-0.79603057 959.11322523 -0.78295156 944.97672494 -0.76867336 930.84022078 C-0.74482198 907.06434022 -0.7256278 883.28845801 -0.70907402 859.51257133 C-0.69266118 835.95941376 -0.67418842 812.40625927 -0.65294075 788.85310555 C-0.65195316 787.75679026 -0.65195316 787.75679026 -0.65094561 786.63832719 C-0.64493129 779.96310841 -0.63889148 773.28788965 -0.63282111 766.61267092 C-0.61772967 750.0171947 -0.60295783 733.4217182 -0.58840275 716.82624149 C-0.58773961 716.0704349 -0.58707647 715.3146283 -0.58639324 714.53591848 C-0.55414606 677.75059152 -0.52558059 640.96526183 -0.49731445 604.17993164 C-0.48750073 591.4110921 -0.47767075 578.64225257 -0.46777344 565.87341309 C-0.46685274 564.68556157 -0.46685274 564.68556157 -0.46591344 563.47371306 C-0.43736898 526.67535356 -0.40621282 489.87699642 -0.37438093 453.07863964 C-0.37231498 450.69030788 -0.37025016 448.30197612 -0.36818558 445.91364435 C-0.35450189 430.08633702 -0.34077315 414.25902972 -0.32701423 398.43172246 C-0.29963669 366.93803443 -0.27252395 335.44434619 -0.24559305 303.95065778 C-0.24431047 302.45077176 -0.2430277 300.95088573 -0.24174474 299.45099971 C-0.17150571 217.33333787 -0.10596766 135.21567237 0 0 Z " fill="#FEFEFE" transform="translate(4095,0)"/>
<path d="M0 0 C674.85 0 1349.7 0 2045 0 C2045.020625 174.054375 2045.04125 348.10875 2045.0625 527.4375 C2045.071604 582.50681396 2045.08070801 637.57612793 2045.09008789 694.31420898 C2045.09460449 761.27746582 2045.09460449 761.27746582 2045.09544373 792.57118225 C2045.09641075 815.27278407 2045.10039236 837.97438273 2045.10612545 860.67598367 C2045.11214695 884.58924461 2045.11496457 908.50250378 2045.11356223 932.4157655 C2045.11269396 947.29251434 2045.11446113 962.16925684 2045.1208076 977.04600447 C2045.12453177 986.40598475 2045.12468833 995.7659605 2045.12183534 1005.12594107 C2045.12031135 1010.47023734 2045.12043561 1015.81452059 2045.12488258 1021.1588155 C2045.12889496 1026.01851345 2045.12840329 1030.87818818 2045.12413984 1035.73788573 C2045.12341883 1037.49597438 2045.12441628 1039.25406468 2045.12723528 1041.01215122 C2045.13079288 1043.37850026 2045.12831974 1045.74476444 2045.1241985 1048.11111063 C2045.12435448 1049.42743112 2045.12451046 1050.7437516 2045.12467116 1052.09996059 C2045 1055 2045 1055 2044 1056 C2043.80448679 1057.78410588 2043.67477664 1059.57544353 2043.5703125 1061.3671875 C2043.49868896 1062.5430542 2043.42706543 1063.7189209 2043.35327148 1064.93041992 C2043.2402771 1066.88298706 2043.2402771 1066.88298706 2043.125 1068.875 C2042.95433557 1071.6811457 2042.77972392 1074.48704402 2042.60546875 1077.29296875 C2042.55900711 1078.04771988 2042.51254547 1078.80247101 2042.4646759 1079.58009338 C2041.89359947 1088.81697721 2041.27165279 1098.05034947 2040.63641357 1107.28302002 C2040.50394522 1109.21728562 2040.37296054 1111.15165342 2040.24346924 1113.08612061 C2040.06027126 1115.82198293 2039.87249122 1118.55749482 2039.68359375 1121.29296875 C2039.6294783 1122.11461014 2039.57536285 1122.93625153 2039.51960754 1123.78279114 C2039.27183583 1127.30310467 2038.893293 1130.59229458 2038 1134 C2037.82819982 1135.38869014 2037.68668576 1136.78135203 2037.5703125 1138.17578125 C2037.46299805 1139.40095459 2037.46299805 1139.40095459 2037.35351562 1140.65087891 C2037.27810547 1141.52921387 2037.20269531 1142.40754883 2037.125 1143.3125 C2036.40332172 1151.27194005 2035.53133028 1159.1996636 2034.5 1167.125 C2034.38156738 1168.04708252 2034.26313477 1168.96916504 2034.14111328 1169.91918945 C2033.41375689 1175.40396982 2032.50125306 1180.82972813 2031.48632812 1186.26806641 C2030.54053878 1191.58100958 2029.86020561 1196.93335371 2029.14453125 1202.28125 C2028.4645835 1207.20904334 2027.6072479 1212.02865301 2026.48193359 1216.87402344 C2025.73496807 1220.16914793 2025.15890792 1223.48676771 2024.5625 1226.8125 C2023.50597073 1232.59039444 2022.22939828 1238.25887537 2020.75 1243.9453125 C2019.89542471 1247.42592644 2019.19041288 1250.9207094 2018.5 1254.4375 C2016.40137256 1265.09290222 2013.91033222 1275.49709465 2010.77270508 1285.8894043 C2009.39552259 1290.49910364 2008.24756379 1295.07233635 2007.45703125 1299.82421875 C2006.86515086 1302.64197411 2005.93488133 1305.27567227 2005 1308 C2003.98543176 1311.0995328 2002.99219689 1314.2057449 2002 1317.3125 C2001.73960938 1318.11623047 2001.47921875 1318.91996094 2001.2109375 1319.74804688 C1999.97114922 1323.63960453 1998.865629 1327.4745106 1998.0625 1331.48046875 C1997.17823787 1335.67933795 1995.68826077 1339.45037603 1994.0390625 1343.40234375 C1992.26065073 1347.84837317 1990.90338178 1352.4245909 1989.5 1357 C1987.54817385 1363.363488 1985.4446196 1369.57545589 1982.91943359 1375.73583984 C1981.70401568 1378.72887906 1980.62806778 1381.76328008 1979.5625 1384.8125 C1975.35165007 1396.69817121 1970.65300492 1408.34694459 1965.75 1419.9609375 C1963.56239778 1425.17016528 1961.47045557 1430.39190066 1959.5 1435.6875 C1957.73099618 1440.34569187 1955.68264795 1444.55845074 1953.171875 1448.8515625 C1951.97434163 1451.04704035 1951.07283608 1453.2249021 1950.1875 1455.5625 C1948.20865301 1460.70750218 1945.76603502 1465.58045798 1943.26977539 1470.48706055 C1941.00581544 1474.95044338 1938.84068342 1479.44771519 1936.73388672 1483.98730469 C1932.60974908 1492.86754822 1928.10589541 1501.44154638 1923.26171875 1509.94921875 C1921.7788631 1512.56479404 1920.38300362 1515.19932798 1919.05859375 1517.8984375 C1916.69512234 1522.69163491 1914.04085192 1527.30747175 1911.375 1531.9375 C1910.84648437 1532.85772949 1910.31796875 1533.77795898 1909.7734375 1534.72607422 C1908.18568999 1537.48602594 1906.59359245 1540.24341981 1905 1543 C1904.55817383 1543.76618652 1904.11634766 1544.53237305 1903.66113281 1545.32177734 C1893.985753 1562.0699583 1883.53543877 1578.28314502 1872.8125 1594.375 C1872.3929303 1595.00489838 1871.9733606 1595.63479675 1871.54107666 1596.28378296 C1863.9354795 1607.69106247 1856.31782063 1619.09579236 1848 1630 C1846.62367378 1631.83233792 1845.24881794 1633.66578071 1843.875 1635.5 C1829.89453125 1654.140625 1829.89453125 1654.140625 1828.45483398 1656.05737305 C1827.46113329 1657.3842528 1826.47122467 1658.71397874 1825.48461914 1660.04614258 C1822.38643885 1664.2175909 1819.18960428 1668.23817836 1815.8125 1672.1875 C1814.85283447 1673.31377643 1813.89319996 1674.44007928 1812.93359375 1675.56640625 C1812.44874512 1676.13375488 1811.96389648 1676.70110352 1811.46435547 1677.28564453 C1809.09468194 1680.05987719 1806.73394518 1682.84164382 1804.375 1685.625 C1803.91432129 1686.16745361 1803.45364258 1686.70990723 1802.97900391 1687.26879883 C1800.16100091 1690.5962062 1797.41222017 1693.9703589 1794.6875 1697.375 C1789.81810773 1703.36742328 1784.52591947 1708.93806496 1779.23046875 1714.55078125 C1776.82082121 1717.10909599 1774.4737788 1719.70501007 1772.1875 1722.375 C1769.11198966 1725.95405738 1765.79213278 1729.24643834 1762.40625 1732.53125 C1760.53879991 1734.44720529 1758.81348299 1736.37338238 1757.08203125 1738.40625 C1752.01178985 1744.24677545 1746.51276718 1749.67326144 1741.04614258 1755.13916016 C1739.16914531 1757.01837639 1737.30033111 1758.90549623 1735.43164062 1760.79296875 C1734.2400716 1761.98746644 1733.04803171 1763.18149464 1731.85546875 1764.375 C1731.29715866 1764.94049561 1730.73884857 1765.50599121 1730.16362 1766.08862305 C1726.22886447 1770 1726.22886447 1770 1724 1770 C1723.67 1770.99 1723.34 1771.98 1723 1773 C1721.2578125 1774.71875 1721.2578125 1774.71875 1719.125 1776.5 C1716.14615469 1779.00265321 1716.14615469 1779.00265321 1713.3671875 1781.71875 C1712 1783 1712 1783 1710 1783 C1709.77183594 1783.57492187 1709.54367187 1784.14984375 1709.30859375 1784.7421875 C1707.64740758 1787.60835349 1705.67602152 1789.09267767 1703.0625 1791.125 C1699.07609331 1794.29541471 1695.2415477 1797.54377896 1691.5 1801 C1687.1123909 1805.03386975 1682.59450227 1808.83630289 1677.95703125 1812.578125 C1674.54651536 1815.3714141 1671.21041872 1818.2429305 1667.875 1821.125 C1662.70103543 1825.58234513 1657.46174763 1829.89666302 1652 1834 C1651.03191406 1834.72960938 1650.06382813 1835.45921875 1649.06640625 1836.2109375 C1646.04821707 1838.47928941 1643.02457483 1840.74017228 1640 1843 C1639.39212646 1843.45826172 1638.78425293 1843.91652344 1638.15795898 1844.38867188 C1633.21248114 1848.1141065 1628.21368171 1851.75937267 1623.1875 1855.375 C1618.21240439 1858.95712958 1613.24703463 1862.54957732 1608.3125 1866.1875 C1597.76890476 1873.8614317 1586.74102696 1880.85859379 1575.75585938 1887.87792969 C1572.73087329 1889.81102702 1569.70875728 1891.74858145 1566.6875 1893.6875 C1566.0992041 1894.06438965 1565.5109082 1894.4412793 1564.90478516 1894.82958984 C1561.67493569 1896.90389736 1558.48173995 1899.02204068 1555.3125 1901.1875 C1551.37195585 1903.83381038 1547.27122585 1906.06745511 1543.0859375 1908.30078125 C1538.89781877 1910.60689726 1534.81787284 1913.07973163 1530.74169922 1915.57739258 C1525.26420401 1918.91050348 1519.64265987 1921.95701978 1514 1925 C1512.35644531 1925.89114502 1512.35644531 1925.89114502 1510.6796875 1926.80029297 C1495.13760654 1935.21387215 1479.53864878 1943.37294204 1463.50878906 1950.83007812 C1461.12255914 1951.94284708 1458.74366863 1953.06971054 1456.3671875 1954.203125 C1448.18532864 1958.09911783 1439.94226271 1961.82053321 1431.625 1965.41796875 C1428.60238827 1966.73710426 1425.61162638 1968.10229528 1422.625 1969.5 C1416.37130202 1972.36667245 1409.94862419 1974.79353593 1403.52734375 1977.25390625 C1399.48450906 1978.80444287 1395.46431346 1980.40802818 1391.44555664 1982.01977539 C1360.57527796 1994.39315753 1328.91764232 2004.69989113 1297 2014 C1296.06800781 2014.27279785 1295.13601563 2014.5455957 1294.17578125 2014.82666016 C1247.97476717 2028.27173549 1200.01589338 2036.92189834 1152.375 2043.3125 C1151.00207291 2043.49756607 1151.00207291 2043.49756607 1149.60140991 2043.68637085 C1144.31619786 2044.39290021 1139.02737116 2045.05257998 1133.73180103 2045.67678356 C1132.05968353 2045.87462222 1130.3879744 2046.07600296 1128.71702862 2046.28350544 C1110.05132964 2048.55206325 1091.31678894 2048.32911158 1072.54707575 2048.33451414 C1069.72677891 2048.33595334 1066.90650052 2048.34025584 1064.08620834 2048.34550858 C1054.17155508 2048.36393107 1044.25695497 2048.37219031 1034.34228516 2048.37060547 C1025.22552456 2048.36941091 1016.10900329 2048.39039809 1006.99230301 2048.4220928 C999.06772204 2048.44862117 991.14321732 2048.45895758 983.21859252 2048.45769465 C978.52939188 2048.45719493 973.84040372 2048.46230475 969.15124893 2048.48405075 C935.45837767 2048.62942685 902.42422092 2045.70093287 869.10229492 2040.76245117 C865.92054429 2040.29148768 862.73685123 2039.83552885 859.55273438 2039.38085938 C857.50508996 2039.08414909 855.45755829 2038.78665944 853.41015625 2038.48828125 C851.99839867 2038.28517082 851.99839867 2038.28517082 850.55812073 2038.07795715 C849.70628708 2037.95079819 848.85445343 2037.82363922 847.97680664 2037.69262695 C847.22919571 2037.58255814 846.48158478 2037.47248932 845.71131897 2037.35908508 C844 2037 844 2037 843 2036 C840.80407032 2035.54536875 838.59696778 2035.14456554 836.38671875 2034.765625 C834.98936433 2034.52172499 833.59206845 2034.27748942 832.19482422 2034.03295898 C831.45907166 2033.90541229 830.72331909 2033.7778656 829.965271 2033.64645386 C818.89489146 2031.71961631 807.91788636 2029.69213405 797.04663086 2026.82299805 C790.98131637 2025.22289877 784.88658262 2023.86138678 778.75 2022.5625 C770.52494139 2020.80941264 762.3469363 2018.9123243 754.1875 2016.875 C752.73005371 2016.51257202 752.73005371 2016.51257202 751.24316406 2016.14282227 C743.44033397 2014.17323475 735.70498419 2012.07711555 728.1875 2009.1875 C722.90713659 2007.22685873 717.54574041 2005.70018426 712.125 2004.1875 C704.62679207 2002.08743547 697.20044633 1999.83609715 689.8125 1997.375 C688.9767041 1997.09809326 688.1409082 1996.82118652 687.27978516 1996.53588867 C681.43071283 1994.56461245 675.71670699 1992.32384475 670 1990 C663.83999935 1987.58926027 657.66679507 1985.22603052 651.4375 1983 C646.60388646 1981.2582203 641.88030392 1979.3042426 637.1484375 1977.3046875 C631.80883654 1975.09199926 626.40432728 1973.04841437 621 1971 C621 1970.34 621 1969.68 621 1969 C620.21625 1968.9175 619.4325 1968.835 618.625 1968.75 C609.33339707 1966.82759939 600.75906397 1962.10730332 592.23535156 1958.06103516 C589.80168686 1956.9058684 587.3656587 1955.75576307 584.9296875 1954.60546875 C566.50565235 1945.88870276 548.52406425 1936.65905943 530.72265625 1926.72973633 C527.01188642 1924.66296316 523.29379034 1922.61277829 519.5546875 1920.59765625 C498.78291565 1909.37344769 478.82692989 1896.80437002 459 1884 C458.34870117 1883.57960449 457.69740234 1883.15920898 457.02636719 1882.72607422 C451.14556964 1878.9142035 445.47947111 1874.95926269 440.03515625 1870.54296875 C437.78037785 1868.83349184 435.43047654 1867.44994094 433 1866 C424.40800576 1860.34185745 416.04267125 1854.41465648 408 1848 C405.89883444 1846.37091449 403.79513074 1844.74566358 401.6875 1843.125 C400.85460449 1842.48268433 400.85460449 1842.48268433 400.00488281 1841.82739258 C396.39065562 1839.04653285 392.73537381 1836.32823512 389.0625 1833.625 C383.27154922 1829.30088635 377.82600417 1824.6395079 372.37109375 1819.90625 C369.45788355 1817.38174175 366.49483876 1814.92753451 363.5 1812.5 C353.19940075 1804.12036419 343.22322431 1795.40655353 333.48974609 1786.37646484 C331.9437614 1784.94803782 330.38922563 1783.52947547 328.83203125 1782.11328125 C323.92808362 1777.65019738 319.09427715 1773.15300406 314.44921875 1768.41796875 C312.43148737 1766.4437464 310.21405949 1764.7479417 308 1763 C306.84992218 1761.86480304 305.70198489 1760.72734886 304.56542969 1759.57861328 C302.69955101 1757.69702072 300.81658643 1755.83321437 298.93359375 1753.96875 C297.43483972 1752.47922313 295.93614315 1750.98963843 294.4375 1749.5 C293.30538086 1748.38044922 293.30538086 1748.38044922 292.15039062 1747.23828125 C288.53260066 1743.63642869 285.10362898 1740.06552852 282 1736 C280.3563186 1734.31066078 278.6857124 1732.64740076 277 1731 C262.65135699 1716.95407098 262.65135699 1716.95407098 261 1712 C260.40445313 1711.70996094 259.80890625 1711.41992188 259.1953125 1711.12109375 C256.26642486 1709.62538067 254.88926598 1707.65280145 252.875 1705.0625 C249.66861426 1701.02814953 246.37495926 1697.15773036 242.875 1693.375 C239.29996529 1689.48597919 235.9694706 1685.51859655 232.77734375 1681.3125 C230.7395415 1678.66111773 228.62591585 1676.08121317 226.5 1673.5 C222.5813532 1668.72889883 218.76340563 1663.89400858 215 1659 C214.26265625 1658.04738281 213.5253125 1657.09476563 212.765625 1656.11328125 C203.60023373 1644.25949889 194.46002914 1632.37111405 186 1620 C184.98969656 1618.5298701 183.97926724 1617.0598267 182.96875 1615.58984375 C179.63461091 1610.73418833 176.31403156 1605.86939664 173 1601 C172.29875 1599.97003906 171.5975 1598.94007812 170.875 1597.87890625 C160.19430396 1582.01899338 150.12389567 1565.75942006 140.3762207 1549.31298828 C138.91112399 1546.85062777 137.4301788 1544.39815993 135.94921875 1541.9453125 C133.31241725 1537.55319097 130.7832916 1533.11221453 128.3125 1528.625 C127.6791272 1527.47680786 127.6791272 1527.47680786 127.03295898 1526.30541992 C126.14066032 1524.68774977 125.24882034 1523.06982653 124.35742188 1521.45166016 C123.0152873 1519.02761063 121.65801456 1516.61263899 120.296875 1514.19921875 C114.78730084 1504.38084975 109.71788271 1494.43476046 104.9296875 1484.24462891 C102.28811982 1478.6360692 99.5374813 1473.12623686 96.5625 1467.6875 C94.11264593 1463.18920073 91.92865122 1458.71402122 90.12109375 1453.91796875 C88.52423384 1449.76168181 86.79063671 1445.66562682 85.0625 1441.5625 C84.73830078 1440.78745117 84.41410156 1440.01240234 84.08007812 1439.21386719 C82.33290075 1435.0612816 80.52079375 1430.95233942 78.62109375 1426.8671875 C75.43066869 1419.88977369 72.73028278 1412.72819464 70 1405.5625 C68.98140528 1402.89627344 67.9605387 1400.23093076 66.9375 1397.56640625 C66.5651548 1396.595644 66.5651548 1396.595644 66.18528748 1395.60527039 C64.63742636 1391.59083679 63.02008735 1387.61242538 61.34765625 1383.6484375 C59.18552806 1378.51262722 57.2509675 1373.33049352 55.4375 1368.0625 C54.9892688 1366.77073853 54.9892688 1366.77073853 54.53198242 1365.45288086 C52.19815676 1358.68079429 50.03947321 1351.86652335 48 1345 C45.85409659 1337.84981592 43.64519829 1330.78521876 40.9296875 1323.828125 C39.89430507 1320.67847423 39.2033933 1317.52853547 38.50927734 1314.28955078 C37.76140376 1310.92734633 36.82089685 1307.62293949 35.875 1304.3125 C34.91284248 1300.8760657 33.95628154 1297.43807369 33 1294 C32.56228271 1292.42726318 32.56228271 1292.42726318 32.11572266 1290.82275391 C23.3337644 1259.08452867 16.35545283 1227.14567523 11.39581299 1194.58978271 C10.97772392 1191.85424884 10.55329521 1189.11974122 10.12841797 1186.38525391 C6.05102208 1160.02239986 2.82879869 1133.69299465 0.7265625 1107.09765625 C0.6364389 1105.96117897 0.6364389 1105.96117897 0.54449463 1104.80174255 C-0.58721815 1089.8308416 -1.14592168 1074.94435944 -1.10743046 1059.9339962 C-1.10645884 1058.07218713 -1.1059336 1056.21037779 -1.10580849 1054.34856848 C-1.10419099 1049.26464376 -1.09629959 1044.18074581 -1.08732378 1039.09682949 C-1.07869144 1033.56660566 -1.07599839 1028.03637834 -1.07254028 1022.50614929 C-1.06566611 1012.81438941 -1.05502128 1003.12263939 -1.0418998 993.43088603 C-1.02769382 982.92720544 -1.01573447 972.42352516 -1.00645053 961.91983914 C-1.0058569 961.24971426 -1.00526327 960.57958937 -1.00465164 959.88915767 C-1.00163414 956.47136083 -0.99865266 953.05356395 -0.99568415 949.63576707 C-0.97436239 925.16917055 -0.94826161 900.70258114 -0.91941833 876.23599243 C-0.88043606 843.15383213 -0.84782653 810.07167129 -0.81628418 776.98950195 C-0.73723055 697.45132894 -0.64932184 617.91316492 -0.5625 538.375 C-0.376875 360.71125 -0.19125 183.0475 0 0 Z " fill="#000000" transform="translate(2050,0)"/>
<path d="M0 0 C542.85 0 1085.7 0 1645 0 C1645 336.6 1645 673.2 1645 1020 C1102.15 1020 559.3 1020 0 1020 C0 683.4 0 346.8 0 0 Z " fill="#FEFEFE" transform="translate(0,514)"/>
<path d="M0 0 C336.6 0 673.2 0 1020 0 C1020 542.85 1020 1085.7 1020 1645 C683.4 1645 346.8 1645 0 1645 C0 1102.15 0 559.3 0 0 Z " fill="#FEFEFE" transform="translate(2561,0)"/>
<path d="M0 0 C328.35 0 656.7 0 995 0 C995 340.56 995 681.12 995 1032 C994.34 1032 993.68 1032 993 1032 C992.99635437 1030.88390854 992.99270874 1029.76781708 992.98895264 1028.61790466 C992.95139468 1017.90182237 992.89299425 1007.1860115 992.81609726 996.4701376 C992.77721802 990.96600391 992.74474792 985.46201601 992.72900391 979.95776367 C992.64337733 952.05751472 991.54492475 924.68327729 988 897 C987.86442688 895.90392426 987.72885376 894.80784851 987.58917236 893.67855835 C986.8711733 887.89703159 986.06630095 882.13410022 985.1875 876.375 C985.06405212 875.54866058 984.94060425 874.72232117 984.81341553 873.87094116 C982.06063042 855.48087345 978.68702903 837.22362466 975 819 C974.83052856 818.16055847 974.66105713 817.32111694 974.4864502 816.45623779 C973.25838228 810.38384054 972.00978592 804.31588906 970.75 798.25 C970.58332825 797.44140533 970.41665649 796.63281067 970.24493408 795.79971313 C967.95616959 784.67052498 967.95616959 784.67052498 964.62548828 773.81738281 C963.66113666 771.01541814 963.12211041 768.15580312 962.5625 765.25 C961.39622217 759.60497482 959.90829114 754.1896323 958.15234375 748.703125 C957.0285917 745.09188113 955.99936139 741.46548004 954.98510742 737.82250977 C951.93749962 726.89828824 948.45265425 716.15907496 944.81640625 705.41796875 C943.40319203 701.23580304 942.07296184 697.04295695 940.8125 692.8125 C939.21180839 687.4956653 937.25944293 682.36281556 935.22265625 677.19921875 C934.02842676 674.07438185 932.9661394 670.93273133 931.9375 667.75 C930.56313005 663.54475649 928.97172067 659.58127959 927.1171875 655.5703125 C925.69684446 652.30253025 924.47735931 648.96846804 923.25 645.625 C918.44452518 632.6204058 912.98410463 619.91187398 907.03515625 607.390625 C905.37949368 603.86374973 903.80717585 600.3040741 902.24609375 596.734375 C896.6282467 583.89319147 890.77104393 571.34452147 884.08447266 559.02685547 C882.44704323 555.966536 880.91195705 552.86207781 879.375 549.75 C874.10850429 539.16778898 868.70364943 528.85954184 862.20874023 518.97509766 C859.49615203 514.83178992 857.10589698 510.6043492 854.78515625 506.234375 C852.33775574 501.80013512 849.73460355 497.46528516 847.125 493.125 C846.64313232 492.32304199 846.16126465 491.52108398 845.66479492 490.69482422 C844.11592833 488.1261606 842.55861752 485.56275789 841 483 C840.39430176 481.99735107 839.78860352 480.99470215 839.16455078 479.96166992 C834.21563999 471.8286765 828.99381851 463.92206418 823.625 456.0625 C822.78015432 454.82172166 821.9353467 453.5809174 821.09057617 452.34008789 C815.50364836 444.14580552 809.8434516 436.01387648 804 428 C803.33355469 427.071875 802.66710938 426.14375 801.98046875 425.1875 C797.99503189 419.65348116 793.88977933 414.22606395 789.7109375 408.83789062 C787.06752376 405.42010262 784.51039461 401.95508922 782 398.4375 C778.38940316 393.43206495 774.50350307 388.7070344 770.5234375 383.9921875 C767.29968578 380.16959645 764.14072543 376.2962504 760.984375 372.41796875 C759.32799244 370.39966008 757.64201216 368.41492562 755.9375 366.4375 C754 364 754 364 754 362 C753.34 362 752.68 362 752 362 C750.4765625 360.26953125 750.4765625 360.26953125 748.625 357.8125 C744.80449785 352.90639068 740.72874891 348.34775941 736.47705078 343.81958008 C733.7691873 340.93158759 731.11608684 338.00890092 728.515625 335.0234375 C718.04734712 323.00541457 706.81634629 311.71342518 695.5625 300.4375 C694.95290436 299.82531616 694.34330872 299.21313232 693.71524048 298.58239746 C687.81908904 292.6665238 681.94844984 286.78699711 675.58569336 281.36743164 C673.44281376 279.5195073 671.46950524 277.5301054 669.5 275.5 C666.14484172 272.10469453 662.69919519 268.90472264 659.078125 265.796875 C656.78869055 263.81728882 654.55132705 261.78661041 652.3125 259.75 C648.2644864 256.09860359 644.15455862 252.52898649 640 249 C639.43579346 248.51885742 638.87158691 248.03771484 638.2902832 247.54199219 C635.32408271 245.00966068 635.32408271 245.00966068 632 243 C632 242.34 632 241.68 632 241 C631.45601562 240.76539063 630.91203125 240.53078125 630.3515625 240.2890625 C627.35743119 238.64776128 624.97373524 236.58975325 622.375 234.375 C621.29484474 233.46286161 620.21410819 232.55141117 619.1328125 231.640625 C618.59946289 231.19009766 618.06611328 230.73957031 617.51660156 230.27539062 C605.55220782 220.21389788 592.84594199 211.03992866 580.22387695 201.82885742 C577.16105603 199.59279428 574.1175547 197.33550049 571.09375 195.046875 C566.97521984 191.95303672 562.75845101 189.02218057 558.5 186.125 C557.69030762 185.57328125 556.88061523 185.0215625 556.04638672 184.453125 C553.36694928 182.63141116 550.68409138 180.81484928 548 179 C547.04899414 178.35643555 546.09798828 177.71287109 545.11816406 177.04980469 C522.44888079 161.73960776 499.28174281 147.35842077 475.38549805 134.04418945 C472.19458237 132.26054941 469.05594505 130.44359084 466 128.4375 C460.33426912 124.80944426 454.16438868 122.0111956 448.13330078 119.04833984 C444.72963277 117.3757202 441.33221604 115.69070498 437.9375 114 C437.2784668 113.67241699 436.61943359 113.34483398 435.94042969 113.00732422 C431.32541622 110.69981749 426.78322031 108.27596648 422.25 105.8125 C415.99458945 102.42520538 409.60366772 99.63189655 403 97 C398.17763061 94.96226479 393.51092356 92.74402187 388.875 90.3125 C381.95357934 86.80292213 374.74328491 84.10404127 367.50366211 81.32641602 C361.1880434 78.89250184 355.08349367 76.25244025 348.9765625 73.3359375 C344.50522074 71.32911482 339.90318395 69.75180361 335.2734375 68.15234375 C332.45169319 67.15900894 329.69857668 66.08571474 326.9375 64.9375 C323.3600958 63.47873003 319.76630311 62.27849147 316.06640625 61.16796875 C309.00482464 59.01801331 302.00016701 56.71619298 295 54.375 C293.81277344 53.98054688 292.62554688 53.58609375 291.40234375 53.1796875 C290.25894531 52.798125 289.11554688 52.4165625 287.9375 52.0234375 C286.91527344 51.68231934 285.89304687 51.34120117 284.83984375 50.98974609 C283.01354667 50.35324262 281.20065567 49.6760758 279.40820312 48.94970703 C277.12652536 48.04989696 274.90719067 47.38094158 272.53125 46.78125 C271.30341797 46.46607422 271.30341797 46.46607422 270.05078125 46.14453125 C269.20902344 45.93183594 268.36726563 45.71914063 267.5 45.5 C262.5198546 44.24161717 257.76340337 42.93711737 253 41 C250.67477122 40.38515585 248.34005343 39.80576269 246 39.25 C239.3381327 37.64171912 232.76426667 35.80007868 226.1875 33.875 C219.91405824 32.04484801 213.73829198 30.34351358 207.25390625 29.421875 C205 29 205 29 202.22265625 28.04296875 C198.48559319 26.83351925 194.74130888 26.18346586 190.875 25.5625 C184.79967704 24.54494215 178.88810284 23.26766294 172.9296875 21.69140625 C168.53288535 20.65376094 164.09044417 20.04113985 159.6171875 19.4296875 C157 19 157 19 155 18 C152.94330213 17.66181443 150.87912068 17.36868129 148.8125 17.09765625 C147.55566406 16.92943359 146.29882812 16.76121094 145.00390625 16.58789062 C143.66932168 16.41237333 142.33468584 16.23724552 141 16.0625 C133.40385251 15.0646045 125.86380187 14.04892195 118.36474609 12.47094727 C114.04148387 11.60995482 109.67974256 11.02680811 105.3125 10.4375 C104.35206787 10.30674072 103.39163574 10.17598145 102.40209961 10.04125977 C95.84360724 9.17583072 89.34280207 8.60746134 82.73583984 8.26513672 C79.12554346 8.00890996 75.60391996 7.56182181 72.0234375 7.0390625 C64.22329571 5.95162384 56.42528785 5.38723187 48.5625 4.9375 C47.16998801 4.85385043 45.77749146 4.76994346 44.38500977 4.68579102 C34.76976346 4.11444999 25.15095519 3.65856308 15.52368164 3.34155273 C10.62031314 3.16915663 5.81447068 2.98874364 1 2 C0.67 1.34 0.34 0.68 0 0 Z " fill="#FEFEFE" transform="translate(1055,0)"/>
<path d="M0 0 C310.86 0 621.72 0 942 0 C942 0.33 942 0.66 942 1 C940.95287842 1.08975098 939.90575684 1.17950195 938.8269043 1.27197266 C898.53113158 4.76302941 858.66884774 10.0605154 819 18 C818.09752533 18.18025726 817.19505066 18.36051453 816.26522827 18.54623413 C801.30722804 21.55215938 786.48050964 24.95700859 771.6875 28.6875 C770.15331421 29.07227005 770.15331421 29.07227005 768.58813477 29.46481323 C754.66740773 32.96105073 740.79926943 36.61311161 727 40.5625 C726.27992767 40.76805511 725.55985535 40.97361023 724.81796265 41.18539429 C718.4458612 43.01217467 712.10676902 44.84717 705.93261719 47.27368164 C700.81440678 49.19721322 695.53147066 50.69486516 690.30859375 52.30664062 C684.83236448 54.02130377 679.51118846 55.93783124 674.20166016 58.11401367 C671.54568617 59.18282378 668.85553581 60.07876627 666.125 60.9375 C660.94218155 62.62971345 655.96044331 64.6352909 650.94921875 66.77734375 C648.0758992 67.9685345 645.18380358 69.03061047 642.25 70.0625 C639.14586925 71.16765861 636.22063188 72.32866292 633.3125 73.875 C629.46826011 75.89538783 625.4511249 77.34004607 621.375 78.8125 C614.70882975 81.23317201 608.49262251 84.14050671 602.19921875 87.3984375 C598.54872675 89.22591213 594.83651255 90.71488337 591.02734375 92.171875 C588.86314728 92.99595892 588.86314728 92.99595892 586.5 94.5 C584.13850464 95.91689721 581.94162529 96.83492955 579.375 97.8125 C574.58391127 99.66895763 570.19419317 101.98602303 565.73828125 104.53515625 C563.27136282 105.85483444 560.77997858 106.93383915 558.20336914 108.01489258 C552.88482847 110.39276644 547.73603923 113.13729918 542.5625 115.8125 C541.92738495 116.14025421 541.2922699 116.46800842 540.63790894 116.80569458 C528.67828973 122.99197549 517.0354808 129.64961632 505.46777344 136.54150391 C502.23432317 138.45252804 498.964511 140.28972248 495.6875 142.125 C481.60051214 150.16989868 468.11819703 159.19620451 454.625 168.1875 C453.99537354 168.60688843 453.36574707 169.02627686 452.71704102 169.45837402 C441.30948704 177.06415414 429.90447021 184.68197908 419 193 C417.16766208 194.37632622 415.33421929 195.75118206 413.5 197.125 C412.48292969 197.888125 411.46585937 198.65125 410.41796875 199.4375 C407.94305077 201.29387148 405.46604188 203.14742463 402.98828125 205 C389.02784257 215.44289941 375.39235449 226.16771564 362.19042969 237.56176758 C358.69909179 240.56830337 355.16191446 243.49760776 351.5625 246.375 C345.58701168 251.21903491 340.04069439 256.49416113 334.44921875 261.76953125 C331.89090401 264.17917879 329.29498993 266.5262212 326.625 268.8125 C323.04594262 271.88801034 319.75356166 275.20786722 316.46875 278.59375 C314.4615924 280.55009348 312.42605039 282.3762016 310.30297852 284.20141602 C306.27377434 287.71626341 302.45708118 291.39768286 298.68359375 295.18359375 C298.02343765 295.84279312 297.36328156 296.50199249 296.68312073 297.1811676 C295.29964494 298.56396835 293.91740917 299.94801076 292.53637695 301.33325195 C290.44268331 303.43230343 288.34370126 305.5259594 286.24414062 307.61914062 C284.89030429 308.97363786 283.53677825 310.32844531 282.18359375 311.68359375 C281.25830116 312.60584999 281.25830116 312.60584999 280.3143158 313.54673767 C276.57381611 317.30707716 273.01949424 321.1845449 269.55641174 325.20204163 C267.26018918 327.85462543 264.88085923 330.42307001 262.5 333 C258.83340037 336.98146864 255.21196 340.9947742 251.66796875 345.0859375 C249.8419181 347.18140546 247.98354918 349.24582252 246.125 351.3125 C242.43371284 355.45722742 238.92116158 359.72869712 235.42578125 364.0390625 C232.78036463 367.26808955 230.08244261 370.44806401 227.375 373.625 C220.71679195 381.46080371 214.53409383 389.59947606 208.3828125 397.8359375 C206.38078021 400.49437382 204.3557231 403.13244725 202.31469727 405.76098633 C197.17864435 412.38107715 192.24869578 419.12464627 187.42626953 425.97607422 C185.86092683 428.19734964 184.28768722 430.41293649 182.71484375 432.62890625 C174.98818601 443.5523916 167.55808449 454.63714905 160.34228516 465.90429688 C159.21580096 467.66307104 158.08322679 469.41794257 156.94921875 471.171875 C153.31647485 476.81724254 149.84277888 482.55048162 146.40527344 488.31591797 C143.97886323 492.38360225 141.50548219 496.41777013 139 500.4375 C134.43943831 507.83494653 130.19892529 515.39352821 126 523 C125.52481934 523.85867676 125.04963867 524.71735352 124.56005859 525.60205078 C118.44412825 536.67056586 112.47942547 547.78305094 106.91796875 559.140625 C106.01167114 560.97635973 105.08749239 562.80180816 104.15625 564.625 C98.24758777 576.2222967 92.83039161 588.04249167 87.42675781 599.88183594 C86.1662606 602.63663922 84.89424683 605.38566267 83.6171875 608.1328125 C77.13249187 622.17916229 71.55200724 636.56435703 66 651 C65.43684082 652.45768799 65.43684082 652.45768799 64.86230469 653.94482422 C62.54280616 659.9513188 60.25528091 665.96910139 58 672 C57.66371582 672.89912109 57.32743164 673.79824219 56.98095703 674.72460938 C55.93891822 677.52230494 54.90542723 680.32300873 53.875 683.125 C53.57440674 683.93437012 53.27381348 684.74374023 52.96411133 685.57763672 C24.89664372 762.50887008 9.15447415 844.70939521 1 926 C0.67 926 0.34 926 0 926 C0 620.42 0 314.84 0 0 Z " fill="#FEFEFE" transform="translate(0,2045)"/>
<path d="M0 0 C4.29 0 8.58 0 13 0 C13 0.66 13 1.32 13 2 C15.97 2 18.94 2 22 2 C22 2.33 22 2.66 22 3 C6.15071739 3.19784125 6.15071739 3.19784125 1 2 C0.67 1.34 0.34 0.68 0 0 Z " fill="#BDBDBD" transform="translate(1055,0)"/>
</svg>
